<?xml version="1.0" encoding="utf-8"?>
<!-- Generator: Adobe Illustrator 16.0.0, SVG Export Plug-In . SVG Version: 6.00 Build 0)  -->
<!DOCTYPE svg PUBLIC "-//W3C//DTD SVG 1.1//EN" "http://www.w3.org/Graphics/SVG/1.1/DTD/svg11.dtd">
<svg version="1.1" id="Layer_1" xmlns="http://www.w3.org/2000/svg" xmlns:xlink="http://www.w3.org/1999/xlink" x="0px" y="0px"
	 width="208.9px" height="38.838px" viewBox="0 0 208.9 38.838" enable-background="new 0 0 208.9 38.838" xml:space="preserve">
<g>
	<path d="M81.043,27.482c-1.912,0-2.63-0.837-2.63-2.182c0-1.554,0.867-2.361,3.138-2.361h2.989v0.896
		C84.541,26.197,83.076,27.482,81.043,27.482 M75.843,25.539c0,1.854,1.076,3.826,4.424,3.826c1.942,0,3.288-0.747,4.214-1.943
		l0.329,1.644h2.092v-8.848c0-3.796-2.271-4.453-4.961-4.453c-2.033,0-4.693,0.597-5.35,3.646h2.57
		c0.328-1.136,1.106-1.793,2.75-1.793c1.345,0,2.63,0.478,2.63,2.629v0.928h-2.839C78.293,21.175,75.843,22.311,75.843,25.539
		 M68.999,29.066h2.421v-8.13c0-1.883,1.165-2.75,2.66-2.75c0.507,0,1.016,0.03,1.554,0.12v-2.362
		c-0.449-0.15-0.867-0.179-1.285-0.179c-1.345,0-2.391,0.806-2.929,1.913l-0.299-1.584h-2.122V29.066z M154.86,29.066h2.422v-8.13
		c0-1.883,1.165-2.75,2.659-2.75c0.509,0,1.018,0.03,1.556,0.12v-2.362c-0.45-0.15-0.866-0.179-1.285-0.179
		c-1.345,0-2.393,0.806-2.93,1.913l-0.298-1.584h-2.124V29.066z M109.348,18.216v-2.122h-2.659v-3.707l-2.481,0.39v3.317h-1.882
		v2.122h1.882v8.25c0,1.853,0.688,2.959,3.408,2.959c0.599,0,1.493-0.119,2.032-0.27v-1.852c-0.568,0.149-1.106,0.179-1.494,0.179
		c-1.135,0-1.465-0.538-1.465-1.733v-7.533H109.348z M182.389,18.216v-2.122h-2.661v-3.707l-2.479,0.39v3.317h-1.883v2.122h1.883
		v8.25c0,1.853,0.686,2.959,3.407,2.959c0.598,0,1.494-0.119,2.033-0.27v-1.852c-0.567,0.149-1.107,0.179-1.494,0.179
		c-1.136,0-1.467-0.538-1.467-1.733v-7.533H182.389z M146.312,27.393c-2.33,0-3.826-1.615-3.826-4.842
		c0-3.08,1.555-4.813,3.857-4.813c2.329,0,3.706,1.703,3.706,4.962C150.049,25.837,148.614,27.393,146.312,27.393 M189.622,27.393
		c-2.331,0-3.825-1.615-3.825-4.842c0-3.08,1.554-4.813,3.855-4.813c2.333,0,3.706,1.703,3.706,4.962
		C193.357,25.837,191.924,27.393,189.622,27.393 M163.17,29.066h2.362v-7.472c0-2.153,0.925-3.648,3.167-3.648
		c2.092,0,2.75,0.897,2.75,3.08v8.04h2.421v-8.729c0-2.988-1.256-4.543-4.094-4.543c-1.942,0-3.378,0.717-4.244,1.944l-0.3-1.644
		h-2.062V29.066z M90.041,29.066h2.361v-7.472c0-2.153,0.927-3.648,3.168-3.648c2.093,0,2.75,0.897,2.75,3.08v8.04h2.421v-8.729
		c0-2.988-1.255-4.543-4.095-4.543c-1.943,0-3.377,0.717-4.244,1.944l-0.299-1.644h-2.062V29.066z M198.201,29.066h2.36v-7.472
		c0-2.153,0.928-3.648,3.169-3.648c2.091,0,2.751,0.897,2.751,3.08v8.04h2.42v-8.729c0-2.988-1.254-4.543-4.095-4.543
		c-1.943,0-3.379,0.717-4.245,1.944l-0.298-1.644h-2.062V29.066z M125.898,11.64V9.548h-13.81v2.092h5.649v17.426h2.601V11.64
		H125.898z M127.154,29.066h2.363v-7.472c0-2.153,0.924-3.648,3.167-3.648c2.092,0,2.75,0.897,2.75,3.08v8.04h2.421v-8.729
		c0-2.988-1.257-4.543-4.094-4.543c-1.943,0-3.379,0.717-4.244,1.944v-8.19h-2.363V29.066z M59.284,21.326h4.603v4.333
		c-1.404,1.225-3.557,1.702-5.29,1.702c-4.334,0-6.814-2.809-6.814-7.741c0-5.231,2.659-8.129,6.755-8.129
		c2.45,0,4.273,0.867,6.007,2.51l1.524-1.734c-1.554-1.704-4.214-2.959-7.262-2.959c-6.128,0-9.745,4.275-9.745,10.253
		c0,5.858,3.019,9.923,9.564,9.923c3.617,0,6.427-1.584,7.802-3.078v-7.085h-7.144V21.326z M146.492,15.765
		c-4.304,0-6.546,2.959-6.546,6.875c0,4.035,2.242,6.725,6.247,6.725c4.007,0,6.486-2.63,6.486-6.786
		C152.679,18.306,150.376,15.765,146.492,15.765 M189.803,15.765c-4.305,0-6.547,2.959-6.547,6.875c0,4.035,2.242,6.725,6.247,6.725
		c4.004,0,6.486-2.63,6.486-6.786C195.989,18.306,193.687,15.765,189.803,15.765"/>
</g>
<g>
	<defs>
		<path id="SVGID_1_" d="M9.881,2.509c-0.134,0.075-0.27,0.147-0.404,0.227C0.396,8.148-2.66,19.803,2.51,28.959
			c-3.703-7.057,4.568-20.962,16.909-17.037c3.057,0.972,5.488,3.251,7.125,6.487c0.22,0.434,0.331,1.085,0.214,1.467
			c0.056-0.151,0.108-0.302,0.158-0.458C30.199,9.095,21.004,1.621,13.78,1.62C12.37,1.62,11.034,1.904,9.881,2.509"/>
	</defs>
	<clipPath id="SVGID_2_">
		<use xlink:href="#SVGID_1_"  overflow="visible"/>
	</clipPath>
	
		<linearGradient id="SVGID_3_" gradientUnits="userSpaceOnUse" x1="-81.1216" y1="527.9985" x2="-80.122" y2="527.9985" gradientTransform="matrix(-27.8409 1.9468 1.9468 27.8409 -3258.8481 -14527.6934)">
		<stop  offset="0" style="stop-color:#4F2683"/>
		<stop  offset="0.1209" style="stop-color:#4F2683"/>
		<stop  offset="0.2262" style="stop-color:#5D378D"/>
		<stop  offset="0.5149" style="stop-color:#7E62A5"/>
		<stop  offset="0.7404" style="stop-color:#927DB3"/>
		<stop  offset="0.8736" style="stop-color:#9A87B9"/>
		<stop  offset="1" style="stop-color:#8C76AF"/>
	</linearGradient>
	<polygon clip-path="url(#SVGID_2_)" fill="url(#SVGID_3_)" points="32.101,28.826 -2.5,31.246 -4.562,1.753 30.039,-0.667 	"/>
</g>
<g>
	<defs>
		<path id="SVGID_4_" d="M2.51,28.957c0.075,0.135,0.147,0.269,0.226,0.404c5.412,9.081,17.067,12.137,26.224,6.967
			c-7.057,3.703-20.962-4.569-17.037-16.91c0.972-3.057,3.25-5.487,6.487-7.124c0.434-0.22,1.084-0.332,1.467-0.214
			c-0.151-0.057-0.303-0.108-0.457-0.158c-1.481-0.47-2.905-0.685-4.255-0.685C5.266,11.235-0.748,22.746,2.51,28.957"/>
	</defs>
	<clipPath id="SVGID_5_">
		<use xlink:href="#SVGID_4_"  overflow="visible"/>
	</clipPath>
	
		<linearGradient id="SVGID_6_" gradientUnits="userSpaceOnUse" x1="-81.1167" y1="527.9673" x2="-80.1167" y2="527.9673" gradientTransform="matrix(1.9468 27.8411 27.8411 -1.9468 -14528.2334 3297.5532)">
		<stop  offset="0" style="stop-color:#4F2683"/>
		<stop  offset="0.1209" style="stop-color:#4F2683"/>
		<stop  offset="0.2262" style="stop-color:#5D378D"/>
		<stop  offset="0.5149" style="stop-color:#7E62A5"/>
		<stop  offset="0.7404" style="stop-color:#927DB3"/>
		<stop  offset="0.8736" style="stop-color:#9A87B9"/>
		<stop  offset="1" style="stop-color:#8C76AF"/>
	</linearGradient>
	<polygon clip-path="url(#SVGID_5_)" fill="url(#SVGID_6_)" points="28.815,9.168 31.065,41.351 -0.604,43.565 -2.854,11.382 	"/>
</g>
<g>
	<defs>
		<path id="SVGID_7_" d="M19.42,26.914c-3.058-0.971-5.489-3.249-7.126-6.486c-0.218-0.434-0.332-1.084-0.214-1.468
			c-0.056,0.151-0.108,0.304-0.157,0.458c-3.924,12.339,9.976,20.611,17.034,16.91c0.134-0.076,0.27-0.148,0.404-0.227
			c9.081-5.412,12.136-17.066,6.967-26.224C40.031,16.934,31.76,30.839,19.42,26.914"/>
	</defs>
	<clipPath id="SVGID_8_">
		<use xlink:href="#SVGID_7_"  overflow="visible"/>
	</clipPath>
	
		<linearGradient id="SVGID_9_" gradientUnits="userSpaceOnUse" x1="-81.1265" y1="527.9321" x2="-80.1268" y2="527.9321" gradientTransform="matrix(27.8407 -1.9468 -1.9468 -27.8407 3297.7441 14566.0078)">
		<stop  offset="0" style="stop-color:#4F2683"/>
		<stop  offset="0.1209" style="stop-color:#4F2683"/>
		<stop  offset="0.2262" style="stop-color:#5D378D"/>
		<stop  offset="0.5149" style="stop-color:#7E62A5"/>
		<stop  offset="0.7404" style="stop-color:#927DB3"/>
		<stop  offset="0.8736" style="stop-color:#9A87B9"/>
		<stop  offset="1" style="stop-color:#8C76AF"/>
	</linearGradient>
	<polygon clip-path="url(#SVGID_8_)" fill="url(#SVGID_9_)" points="5.9,10.024 41.334,7.546 43.595,39.882 8.162,42.36 	"/>
</g>
<g>
	<defs>
		<path id="SVGID_10_" d="M9.879,2.51c7.056-3.704,20.961,4.568,17.037,16.908c-0.972,3.058-3.251,5.488-6.488,7.125
			c-0.433,0.219-1.084,0.333-1.466,0.214c0.151,0.057,0.302,0.109,0.458,0.157c12.338,3.924,20.609-9.976,16.909-17.034
			c-0.076-0.134-0.148-0.271-0.227-0.403C32.47,3.381,26.023,0,19.408,0C16.168,0,12.889,0.81,9.879,2.51"/>
	</defs>
	<clipPath id="SVGID_11_">
		<use xlink:href="#SVGID_10_"  overflow="visible"/>
	</clipPath>
	
		<linearGradient id="SVGID_12_" gradientUnits="userSpaceOnUse" x1="-81.1196" y1="527.9478" x2="-80.1196" y2="527.9478" gradientTransform="matrix(-1.9468 -27.8409 -27.8409 1.9468 14566.4766 -3258.7744)">
		<stop  offset="0" style="stop-color:#4F2683"/>
		<stop  offset="0.1209" style="stop-color:#4F2683"/>
		<stop  offset="0.2262" style="stop-color:#5D378D"/>
		<stop  offset="0.5149" style="stop-color:#7E62A5"/>
		<stop  offset="0.7404" style="stop-color:#927DB3"/>
		<stop  offset="0.8736" style="stop-color:#9A87B9"/>
		<stop  offset="1" style="stop-color:#8C76AF"/>
	</linearGradient>
	<polygon clip-path="url(#SVGID_11_)" fill="url(#SVGID_12_)" points="10.025,32.936 7.65,-1.038 39.882,-3.292 42.258,30.682 	"/>
</g>
</svg>
